<svg xmlns="http://www.w3.org/2000/svg" xmlns:xlink="http://www.w3.org/1999/xlink" width="840" height="581.04"><rect width="840" height="581.04" rx="5" ry="5" class="a"/><svg y="0%" x="0%"><circle cx="20" cy="20" r="6" fill="#ff5f58"/><circle cx="40" cy="20" r="6" fill="#ffbd2e"/><circle cx="60" cy="20" r="6" fill="#18c132"/></svg><svg height="521.04" viewBox="0 0 80 52.104" width="800" x="15" xmlns="http://www.w3.org/2000/svg" xmlns:xlink="http://www.w3.org/1999/xlink" y="50"><style>@keyframes F{0%{transform:translateX(0)}.6%{transform:translateX(-160px)}.7%{transform:translateX(-400px)}9.5%{transform:translateX(-480px)}10.7%{transform:translateX(-560px)}13.3%{transform:translateX(-640px)}14.3%{transform:translateX(-720px)}15.6%{transform:translateX(-800px)}18.4%{transform:translateX(-1040px)}21.4%{transform:translateX(-1200px)}21.8%{transform:translateX(-1280px)}22.5%{transform:translateX(-1360px)}23.1%{transform:translateX(-1440px)}23.5%{transform:translateX(-1520px)}27%{transform:translateX(-1600px)}31.4%{transform:translateX(-1680px)}32%{transform:translateX(-1760px)}32.4%{transform:translateX(-1840px)}32.8%{transform:translateX(-1920px)}33.2%{transform:translateX(-2000px)}33.7%{transform:translateX(-2080px)}34%{transform:translateX(-2160px)}34.5%{transform:translateX(-2240px)}34.9%{transform:translateX(-2320px)}35.2%{transform:translateX(-2400px)}35.6%{transform:translateX(-2480px)}36%{transform:translateX(-2560px)}36.4%{transform:translateX(-2640px)}36.8%{transform:translateX(-2720px)}37.2%{transform:translateX(-2800px)}37.7%{transform:translateX(-2880px)}38.1%{transform:translateX(-2960px)}38.5%{transform:translateX(-3040px)}38.9%{transform:translateX(-3120px)}39.3%{transform:translateX(-3200px)}39.6%{transform:translateX(-3280px)}40%{transform:translateX(-3360px)}40.4%{transform:translateX(-3440px)}40.8%{transform:translateX(-3520px)}41.2%{transform:translateX(-3600px)}41.6%{transform:translateX(-3680px)}42%{transform:translateX(-3760px)}42.4%{transform:translateX(-3840px)}42.8%{transform:translateX(-3920px)}43.2%{transform:translateX(-4000px)}43.6%{transform:translateX(-4080px)}44%{transform:translateX(-4160px)}44.4%{transform:translateX(-4240px)}44.8%{transform:translateX(-4320px)}45.2%{transform:translateX(-4400px)}45.6%{transform:translateX(-4480px)}46%{transform:translateX(-4560px)}46.4%{transform:translateX(-4640px)}46.7%{transform:translateX(-4720px)}47.1%{transform:translateX(-4800px)}47.5%{transform:translateX(-4880px)}47.9%{transform:translateX(-4960px)}48.3%{transform:translateX(-5040px)}48.7%{transform:translateX(-5120px)}49.1%{transform:translateX(-5200px)}49.5%{transform:translateX(-5280px)}49.8%{transform:translateX(-5360px)}50.2%{transform:translateX(-5440px)}50.6%{transform:translateX(-5520px)}51%{transform:translateX(-5600px)}51.4%{transform:translateX(-5680px)}51.8%{transform:translateX(-5760px)}52.2%{transform:translateX(-5840px)}52.6%{transform:translateX(-5920px)}52.9%{transform:translateX(-6000px)}53.3%{transform:translateX(-6080px)}53.7%{transform:translateX(-6160px)}54.1%{transform:translateX(-6240px)}54.5%{transform:translateX(-6320px)}54.9%{transform:translateX(-6400px)}55.5%{transform:translateX(-6480px)}55.6%{transform:translateX(-6560px)}55.7%{transform:translateX(-6640px)}55.8%{transform:translateX(-6800px)}59.1%{transform:translateX(-6880px)}60.5%{transform:translateX(-6960px)}63.3%{transform:translateX(-7040px)}64.8%{transform:translateX(-7120px)}65.8%{transform:translateX(-7200px)}67.2%{transform:translateX(-7280px)}68.3%{transform:translateX(-7360px)}70.2%{transform:translateX(-7440px)}71.8%{transform:translateX(-7520px)}73.9%{transform:translateX(-7760px)}78.4%{transform:translateX(-7840px)}84.7%{transform:translateX(-8080px)}85.1%{transform:translateX(-8320px)}to{transform:translateX(-8480px)}}.a{fill:#282d35}.f,.g{fill:#dbab79;white-space:pre}.g{fill:#b9c0cb}.h,.i{fill:#fff}.i{white-space:pre}.j,.k,.l,.m{fill:#6f7783}.k,.l,.m{white-space:pre}.l,.m{fill:#a8cc8c}.m{fill:#d290e4}</style><g font-family="Monaco,Consolas,Menlo,'Bitstream Vera Sans Mono','Powerline Symbols',monospace" font-size="1.67"><defs><symbol id="1"><text y="1.67" class="f">fronvo</text><text x="7.014" y="1.67" class="f">➤</text><text x="69.138" y="1.67" class="f">git:master</text></symbol><symbol id="2"><text y="1.67" class="f">fronvo</text><text x="7.014" y="1.67" class="f">➤</text><text x="9.018" y="1.67" class="g">n</text><text x="69.138" y="1.67" class="f">git:master</text></symbol><symbol id="3"><text y="1.67" class="f">fronvo</text><text x="7.014" y="1.67" class="f">➤</text><text x="9.018" y="1.67" class="g">np</text><text x="69.138" y="1.67" class="f">git:master</text></symbol><symbol id="4"><text y="1.67" class="f">fronvo</text><text x="7.014" y="1.67" class="f">➤</text><text x="9.018" y="1.67" class="g">npm</text><text x="69.138" y="1.67" class="f">git:master</text></symbol><symbol id="5"><text y="1.67" class="f">fronvo</text><text x="7.014" y="1.67" class="f">➤</text><text x="9.018" y="1.67" class="g">npm</text><text x="13.026" y="1.67" class="g">i</text><text x="69.138" y="1.67" class="f">git:master</text></symbol><symbol id="6"><text y="1.67" class="g">(</text><path class="h" d="M1.002 0h9v2.171h-9z"/><text x="1.002" y="1.67" class="i">#########</text><path class="j" d="M10.02 0h9v2.171h-9z"/><text x="10.02" y="1.67" class="k">⠂⠂⠂⠂⠂⠂⠂⠂⠂</text><text x="19.038" y="1.67" class="g">)</text><text x="21.042" y="1.67" class="g">⠙</text><text x="23.046" y="1.67" class="g">reify:@swc/core-android-arm-eabi:</text>0<text x="57.114" y="1.67" class="l">timing</text><text x="64.128" y="1.67" class="m">reifyNode:node_</text></symbol><symbol id="7"><text y="1.67" class="g">(</text><path class="h" d="M1.002 0h18v2.171h-18z"/><text x="1.002" y="1.67" class="i">##################</text><text x="19.038" y="1.67" class="g">)</text><text x="21.042" y="1.67" class="g">⠦</text><text x="23.046" y="1.67" class="g">reify:typescript:</text>0<text x="41.082" y="1.67" class="l">timing</text><text x="48.096" y="1.67" class="m">reifyNode:node_modules/@swc/cor</text></symbol><symbol id="8"><text y="1.67" class="g">(</text><path class="h" d="M1.002 0h18v2.171h-18z"/><text x="1.002" y="1.67" class="i">##################</text><text x="19.038" y="1.67" class="g">)</text><text x="21.042" y="1.67" class="g">⠹</text><text x="23.046" y="1.67" class="g">reify:typescript:</text>0<text x="41.082" y="1.67" class="l">timing</text><text x="48.096" y="1.67" class="m">reifyNode:node_modules/@swc/cor</text></symbol><symbol id="9"><text y="1.67" class="g">(</text><path class="h" d="M1.002 0h18v2.171h-18z"/><text x="1.002" y="1.67" class="i">##################</text><text x="19.038" y="1.67" class="g">)</text><text x="21.042" y="1.67" class="g">⠧</text><text x="23.046" y="1.67" class="g">reify:typescript:</text>0<text x="41.082" y="1.67" class="l">timing</text><text x="48.096" y="1.67" class="m">reifyNode:node_modules/@swc/cor</text></symbol><symbol id="10"><text y="1.67" class="g">(</text><path class="h" d="M1.002 0h18v2.171h-18z"/><text x="1.002" y="1.67" class="i">##################</text><text x="19.038" y="1.67" class="g">)</text><text x="21.042" y="1.67" class="g">⠏</text><text x="23.046" y="1.67" class="g">reify:typescript:</text>0<text x="41.082" y="1.67" class="l">timing</text><text x="48.096" y="1.67" class="m">reifyNode:node_modules/@swc/cor</text></symbol><symbol id="11"><text y="1.67" class="f">fronvo</text><text x="7.014" y="1.67" class="f">➤</text><text x="9.018" y="1.67" class="g">npm</text><text x="13.026" y="1.67" class="g">start</text><text x="69.138" y="1.67" class="f">git:master</text></symbol><symbol id="12"><text y="1.67" class="g">Successfully</text><text x="13.026" y="1.67" class="g">compiled:</text><text x="23.046" y="1.67" class="g">43</text><text x="26.052" y="1.67" class="g">files</text><text x="32.064" y="1.67" class="g">with</text><text x="37.074" y="1.67" class="g">swc</text><text x="41.082" y="1.67" class="g">(22.27ms)</text></symbol><symbol id="13"><text y="1.67" style="white-space:pre" fill="#e8128f">F</text><text x="1.002" y="1.67" style="white-space:pre" fill="#e812a5">r</text><text x="2.004" y="1.67" style="white-space:pre" fill="#e812bc">o</text><text x="3.006" y="1.67" style="white-space:pre" fill="#e812d2">n</text><text x="4.008" y="1.67" style="white-space:pre" fill="#e612dd">v</text><text x="5.01" y="1.67" style="white-space:pre" fill="#e412e8">o</text><text x="7.014" y="1.67" style="white-space:pre" fill="#d812e8">s</text><text x="8.016" y="1.67" style="white-space:pre" fill="#cb12e8">e</text><text x="9.018" y="1.67" style="white-space:pre" fill="#c412e8">r</text><text x="10.02" y="1.67" style="white-space:pre" fill="#bd12e8">v</text><text x="11.022" y="1.67" style="white-space:pre" fill="#b312e8">e</text><text x="12.024" y="1.67" style="white-space:pre" fill="#a812e8">r</text><text x="14.028" y="1.67" style="white-space:pre" fill="#9c12e8">v</text><text x="15.03" y="1.67" style="white-space:pre" fill="#8f12e8">0</text><text x="16.032" y="1.67" style="white-space:pre" fill="#8812e8">.</text><text x="17.034" y="1.67" style="white-space:pre" fill="#8012e8">2</text></symbol><symbol id="14"><text y="1.67" class="l">✔</text><text x="2.004" y="1.67" class="g">Server</text><text x="9.018" y="1.67" class="g">running</text><text x="17.034" y="1.67" class="g">at</text><text x="20.04" y="1.67" class="g">port</text><text x="25.05" y="1.67" class="g">3001.</text></symbol><symbol id="15"><text y="1.67" class="g">^C</text></symbol><symbol id="a"><path fill="transparent" d="M0 0h80v24H0z"/></symbol><symbol id="b"><path fill="#6f7683" d="M0 0h1.102v2.171H0z"/></symbol></defs><path class="a" d="M0 0h80v52.104H0z"/><g style="animation-duration:12.916404s;animation-iteration-count:infinite;animation-name:F;animation-timing-function:steps(1,end)"><svg width="8560"><svg><use xlink:href="#a"/><use xlink:href="#b" x="-.004"/></svg><svg x="80"><use xlink:href="#a"/><use xlink:href="#b" x="-.004"/></svg><svg x="160"><use xlink:href="#a"/><use xlink:href="#b" x="-.004"/></svg><svg x="240"><use xlink:href="#a"/><use xlink:href="#b" x="8.996"/><text y="1.67" class="f">fronvo</text><text x="7.014" y="1.67" class="f">➤</text></svg><svg x="320"><use xlink:href="#a"/><use xlink:href="#b" x="8.996"/><use xlink:href="#1"/></svg><svg x="400"><use xlink:href="#a"/><use xlink:href="#b" x="8.996"/><use xlink:href="#1"/></svg><svg x="480"><use xlink:href="#a"/><use xlink:href="#b" x="9.996"/><use xlink:href="#2"/></svg><svg x="560"><use xlink:href="#a"/><use xlink:href="#b" x="10.996"/><use xlink:href="#3"/></svg><svg x="640"><use xlink:href="#a"/><use xlink:href="#b" x="11.996"/><use xlink:href="#4"/></svg><svg x="720"><use xlink:href="#a"/><use xlink:href="#b" x="12.996"/><use xlink:href="#4"/></svg><svg x="800"><use xlink:href="#a"/><use xlink:href="#b" x="13.996"/><use xlink:href="#5"/></svg><svg x="880"><use xlink:href="#a"/><use xlink:href="#b" x="13.996"/><use xlink:href="#5"/></svg><svg x="960"><use xlink:href="#a"/><use xlink:href="#b" x="-.004" y="2.146"/><use xlink:href="#5"/></svg><svg x="1040"><use xlink:href="#a"/><use xlink:href="#b" x="-.004" y="2.146"/><use xlink:href="#5"/></svg><svg x="1120"><use xlink:href="#a"/><use xlink:href="#5"/></svg><svg x="1200"><use xlink:href="#a"/><use xlink:href="#5"/><text y="3.841" class="g">(</text><path class="h" d="M1.002 2.171h9v2.171h-9z"/><text x="1.002" y="3.841" class="i">#########</text><path class="j" d="M10.02 2.171h9v2.171h-9z"/><text x="10.02" y="3.841" class="k">⠂⠂⠂⠂⠂⠂⠂⠂⠂</text><text x="19.038" y="3.841" class="g">)</text><text x="21.042" y="3.841" class="g">⠇</text><text x="23.046" y="3.841" class="g">idealTree:</text>0<text x="34.068" y="3.841" class="l">timing</text><text x="41.082" y="3.841" class="m">idealTree</text><text x="51.102" y="3.841" class="g">Completed</text><text x="61.122" y="3.841" class="g">in</text><text x="64.128" y="3.841" class="g">163ms</text></svg><svg x="1280"><use xlink:href="#a"/><use xlink:href="#5"/><text y="3.841" class="g">(</text><path class="h" d="M1.002 2.171h9v2.171h-9z"/><text x="1.002" y="3.841" class="i">#########</text><path class="j" d="M10.02 2.171h9v2.171h-9z"/><text x="10.02" y="3.841" class="k">⠂⠂⠂⠂⠂⠂⠂⠂⠂</text><text x="19.038" y="3.841" class="g">)</text><text x="21.042" y="3.841" class="g">⠹</text><text x="23.046" y="3.841" class="g">idealTree:</text>0<text x="34.068" y="3.841" class="l">timing</text><text x="41.082" y="3.841" class="m">idealTree</text><text x="51.102" y="3.841" class="g">Completed</text><text x="61.122" y="3.841" class="g">in</text><text x="64.128" y="3.841" class="g">163ms</text></svg><svg x="1360"><use xlink:href="#a"/><use xlink:href="#5"/><use xlink:href="#6" y="2.171"/></svg><svg x="1440"><use xlink:href="#a"/><use xlink:href="#5"/><use xlink:href="#6" y="2.171"/></svg><svg x="1520"><use xlink:href="#a"/><use xlink:href="#5"/><use xlink:href="#6" y="2.171"/></svg><svg x="1600"><use xlink:href="#a"/><use xlink:href="#5"/><use xlink:href="#6" y="2.171"/></svg><svg x="1680"><use xlink:href="#a"/><use xlink:href="#5"/><use xlink:href="#6" y="2.171"/></svg><svg x="1760"><use xlink:href="#a"/><use xlink:href="#5"/><text y="3.841" class="g">(</text><path class="h" d="M1.002 2.171h9v2.171h-9z"/><text x="1.002" y="3.841" class="i">#########</text><path class="j" d="M10.02 2.171h9v2.171h-9z"/><text x="10.02" y="3.841" class="k">⠂⠂⠂⠂⠂⠂⠂⠂⠂</text><text x="19.038" y="3.841" class="g">)</text><text x="21.042" y="3.841" class="g">⠦</text><text x="23.046" y="3.841" class="g">reify:@swc/core-android-arm-eabi:</text>0<text x="57.114" y="3.841" class="l">timing</text><text x="64.128" y="3.841" class="m">reifyNode:node_</text></svg><svg x="1840"><use xlink:href="#a"/><use xlink:href="#5"/><text y="3.841" class="g">(</text><path class="h" d="M1.002 2.171h9v2.171h-9z"/><text x="1.002" y="3.841" class="i">#########</text><path class="j" d="M10.02 2.171h9v2.171h-9z"/><text x="10.02" y="3.841" class="k">⠂⠂⠂⠂⠂⠂⠂⠂⠂</text><text x="19.038" y="3.841" class="g">)</text><text x="21.042" y="3.841" class="g">⠇</text><text x="23.046" y="3.841" class="g">reify:amp-message:</text>0<text x="42.084" y="3.841" class="l">timing</text><text x="49.098" y="3.841" class="m">reifyNode:node_modules/spdx-ex</text></svg><svg x="1920"><use xlink:href="#a"/><use xlink:href="#5"/><text y="3.841" class="g">(</text><path class="h" d="M1.002 2.171h12v2.171h-12z"/><text x="1.002" y="3.841" class="i">############</text><path class="j" d="M13.026 2.171h6v2.171h-6z"/><text x="13.026" y="3.841" class="k">⠂⠂⠂⠂⠂⠂</text><text x="19.038" y="3.841" class="g">)</text><text x="21.042" y="3.841" class="g">⠋</text><text x="23.046" y="3.841" class="g">reify:arg:</text>0<text x="34.068" y="3.841" class="l">timing</text><text x="41.082" y="3.841" class="m">reifyNode:node_modules/balanced-match</text></svg><svg x="2000"><use xlink:href="#a"/><use xlink:href="#5"/><text y="3.841" class="g">(</text><path class="h" d="M1.002 2.171h14v2.171h-14z"/><text x="1.002" y="3.841" class="i">##############</text><path class="j" d="M15.03 2.171h4v2.171h-4z"/><text x="15.03" y="3.841" class="k">⠂⠂⠂⠂</text><text x="19.038" y="3.841" class="g">)</text><text x="21.042" y="3.841" class="g">⠹</text><text x="23.046" y="3.841" class="g">reify:commander:</text>0<text x="40.08" y="3.841" class="l">timing</text><text x="47.094" y="3.841" class="m">reifyNode:node_modules/copyfiles</text></svg><svg x="2080"><use xlink:href="#a"/><use xlink:href="#5"/><text y="3.841" class="g">(</text><path class="h" d="M1.002 2.171h16v2.171h-16z"/><text x="1.002" y="3.841" class="i">################</text><path class="j" d="M17.034 2.171h2v2.171h-2z"/><text x="17.034" y="3.841" class="k">⠂⠂</text><text x="19.038" y="3.841" class="g">)</text><text x="21.042" y="3.841" class="g">⠏</text><text x="23.046" y="3.841" class="g">reify:fastq:</text>0<text x="36.072" y="3.841" class="l">timing</text><text x="43.086" y="3.841" class="m">reifyNode:node_modules/xmlhttpreques</text></svg><svg x="2160"><use xlink:href="#a"/><use xlink:href="#5"/><text y="3.841" class="g">(</text><path class="h" d="M1.002 2.171h17v2.171h-17z"/><text x="1.002" y="3.841" class="i">#################</text><path class="j" d="M18.036 2.171h1v2.171h-1z"/><text x="18.036" y="3.841" class="k">⠂</text><text x="19.038" y="3.841" class="g">)</text><text x="21.042" y="3.841" class="g">⠴</text><text x="23.046" y="3.841" class="g">reify:continuation-local-storage:</text>0<text x="57.114" y="3.841" class="l">timing</text><text x="64.128" y="3.841" class="m">reifyNode:node_</text></svg><svg x="2240"><use xlink:href="#a"/><use xlink:href="#5"/><text y="3.841" class="g">(</text><path class="h" d="M1.002 2.171h17v2.171h-17z"/><text x="1.002" y="3.841" class="i">#################</text><path class="j" d="M18.036 2.171h1v2.171h-1z"/><text x="18.036" y="3.841" class="k">⠂</text><text x="19.038" y="3.841" class="g">)</text><text x="21.042" y="3.841" class="g">⠴</text><text x="23.046" y="3.841" class="g">reify:source-map:</text>0<text x="41.082" y="3.841" class="l">timing</text><text x="48.096" y="3.841" class="m">reifyNode:node_modules/vm2</text><text x="75.15" y="3.841" class="g">Comp</text></svg><svg x="2320"><use xlink:href="#a"/><use xlink:href="#5"/><text y="3.841" class="g">(</text><path class="h" d="M1.002 2.171h17v2.171h-17z"/><text x="1.002" y="3.841" class="i">#################</text><path class="j" d="M18.036 2.171h1v2.171h-1z"/><text x="18.036" y="3.841" class="k">⠂</text><text x="19.038" y="3.841" class="g">)</text><text x="21.042" y="3.841" class="g">⠇</text><text x="23.046" y="3.841" class="g">reify:@mapbox/node-pre-gyp:</text>0<text x="51.102" y="3.841" class="l">timing</text><text x="58.116" y="3.841" class="m">reifyNode:node_module</text></svg><svg x="2400"><use xlink:href="#a"/><use xlink:href="#5"/><text y="3.841" class="g">(</text><path class="h" d="M1.002 2.171h18v2.171h-18z"/><text x="1.002" y="3.841" class="i">##################</text><text x="19.038" y="3.841" class="g">)</text><text x="21.042" y="3.841" class="g">⠦</text><text x="23.046" y="3.841" class="g">reify:yamljs:</text>0<text x="37.074" y="3.841" class="l">timing</text><text x="44.088" y="3.841" class="m">reifyNode:node_modules/moment-timez</text></svg><svg x="2480"><use xlink:href="#a"/><use xlink:href="#5"/><text y="3.841" class="g">(</text><path class="h" d="M1.002 2.171h18v2.171h-18z"/><text x="1.002" y="3.841" class="i">##################</text><text x="19.038" y="3.841" class="g">)</text><text x="21.042" y="3.841" class="g">⠧</text><text x="23.046" y="3.841" class="g">reify:@opencensus/core:</text>0<text x="47.094" y="3.841" class="l">timing</text><text x="54.108" y="3.841" class="m">reifyNode:node_modules/re</text></svg><svg x="2560"><use xlink:href="#a"/><use xlink:href="#5"/><text y="3.841" class="g">(</text><path class="h" d="M1.002 2.171h18v2.171h-18z"/><text x="1.002" y="3.841" class="i">##################</text><text x="19.038" y="3.841" class="g">)</text><text x="21.042" y="3.841" class="g">⠼</text><text x="23.046" y="3.841" class="g">reify:@prisma/client:</text>0<text x="45.09" y="3.841" class="l">timing</text><text x="52.104" y="3.841" class="m">reifyNode:node_modules/moch</text></svg><svg x="2640"><use xlink:href="#a"/><use xlink:href="#5"/><text y="3.841" class="g">(</text><path class="h" d="M1.002 2.171h18v2.171h-18z"/><text x="1.002" y="3.841" class="i">##################</text><text x="19.038" y="3.841" class="g">)</text><text x="21.042" y="3.841" class="g">⠴</text><text x="23.046" y="3.841" class="g">reify:dayjs:</text>0<text x="36.072" y="3.841" class="l">timing</text><text x="43.086" y="3.841" class="m">reifyNode:node_modules/@prisma/clien</text></svg><svg x="2720"><use xlink:href="#a"/><use xlink:href="#5"/><text y="3.841" class="g">(</text><path class="h" d="M1.002 2.171h18v2.171h-18z"/><text x="1.002" y="3.841" class="i">##################</text><text x="19.038" y="3.841" class="g">)</text><text x="21.042" y="3.841" class="g">⠇</text><text x="23.046" y="3.841" class="g">reify:lodash:</text>0<text x="37.074" y="3.841" class="l">timing</text><text x="44.088" y="3.841" class="m">reifyNode:node_modules/prisma</text><text x="74.148" y="3.841" class="g">Compl</text></svg><svg x="2800"><use xlink:href="#a"/><use xlink:href="#5"/><text y="3.841" class="g">(</text><path class="h" d="M1.002 2.171h18v2.171h-18z"/><text x="1.002" y="3.841" class="i">##################</text><text x="19.038" y="3.841" class="g">)</text><text x="21.042" y="3.841" class="g">⠏</text><text x="23.046" y="3.841" class="g">reify:es-abstract:</text>0<text x="42.084" y="3.841" class="l">timing</text><text x="49.098" y="3.841" class="m">reifyNode:node_modules/lodash</text></svg><svg x="2880"><use xlink:href="#a"/><use xlink:href="#5"/><use xlink:href="#7" y="2.171"/></svg><svg x="2960"><use xlink:href="#a"/><use xlink:href="#5"/><use xlink:href="#7" y="2.171"/></svg><svg x="3040"><use xlink:href="#a"/><use xlink:href="#5"/><text y="3.841" class="g">(</text><path class="h" d="M1.002 2.171h18v2.171h-18z"/><text x="1.002" y="3.841" class="i">##################</text><text x="19.038" y="3.841" class="g">)</text><text x="21.042" y="3.841" class="g">⠋</text><text x="23.046" y="3.841" class="g">reify:typescript:</text>0<text x="41.082" y="3.841" class="l">timing</text><text x="48.096" y="3.841" class="m">reifyNode:node_modules/@swc/cor</text></svg><svg x="3120"><use xlink:href="#a"/><use xlink:href="#5"/><use xlink:href="#8" y="2.171"/></svg><svg x="3200"><use xlink:href="#a"/><use xlink:href="#5"/><use xlink:href="#8" y="2.171"/></svg><svg x="3280"><use xlink:href="#a"/><use xlink:href="#5"/><use xlink:href="#8" y="2.171"/></svg><svg x="3360"><use xlink:href="#a"/><use xlink:href="#5"/><use xlink:href="#8" y="2.171"/></svg><svg x="3440"><use xlink:href="#a"/><use xlink:href="#5"/><use xlink:href="#8" y="2.171"/></svg><svg x="3520"><use xlink:href="#a"/><use xlink:href="#5"/><use xlink:href="#8" y="2.171"/></svg><svg x="3600"><use xlink:href="#a"/><use xlink:href="#5"/><use xlink:href="#8" y="2.171"/></svg><svg x="3680"><use xlink:href="#a"/><use xlink:href="#5"/><use xlink:href="#8" y="2.171"/></svg><svg x="3760"><use xlink:href="#a"/><use xlink:href="#5"/><use xlink:href="#8" y="2.171"/></svg><svg x="3840"><use xlink:href="#a"/><use xlink:href="#5"/><use xlink:href="#9" y="2.171"/></svg><svg x="3920"><use xlink:href="#a"/><use xlink:href="#5"/><use xlink:href="#9" y="2.171"/></svg><svg x="4000"><use xlink:href="#a"/><use xlink:href="#5"/><use xlink:href="#9" y="2.171"/></svg><svg x="4080"><use xlink:href="#a"/><use xlink:href="#5"/><use xlink:href="#9" y="2.171"/></svg><svg x="4160"><use xlink:href="#a"/><use xlink:href="#5"/><use xlink:href="#9" y="2.171"/></svg><svg x="4240"><use xlink:href="#a"/><use xlink:href="#5"/><use xlink:href="#9" y="2.171"/></svg><svg x="4320"><use xlink:href="#a"/><use xlink:href="#5"/><use xlink:href="#9" y="2.171"/></svg><svg x="4400"><use xlink:href="#a"/><use xlink:href="#5"/><use xlink:href="#9" y="2.171"/></svg><svg x="4480"><use xlink:href="#a"/><use xlink:href="#5"/><use xlink:href="#9" y="2.171"/></svg><svg x="4560"><use xlink:href="#a"/><use xlink:href="#5"/><use xlink:href="#9" y="2.171"/></svg><svg x="4640"><use xlink:href="#a"/><use xlink:href="#5"/><use xlink:href="#9" y="2.171"/></svg><svg x="4720"><use xlink:href="#a"/><use xlink:href="#5"/><use xlink:href="#9" y="2.171"/></svg><svg x="4800"><use xlink:href="#a"/><use xlink:href="#5"/><use xlink:href="#10" y="2.171"/></svg><svg x="4880"><use xlink:href="#a"/><use xlink:href="#5"/><use xlink:href="#10" y="2.171"/></svg><svg x="4960"><use xlink:href="#a"/><use xlink:href="#5"/><use xlink:href="#10" y="2.171"/></svg><svg x="5040"><use xlink:href="#a"/><use xlink:href="#5"/><use xlink:href="#10" y="2.171"/></svg><svg x="5120"><use xlink:href="#a"/><use xlink:href="#5"/><use xlink:href="#10" y="2.171"/></svg><svg x="5200"><use xlink:href="#a"/><use xlink:href="#5"/><use xlink:href="#10" y="2.171"/></svg><svg x="5280"><use xlink:href="#a"/><use xlink:href="#5"/><use xlink:href="#10" y="2.171"/></svg><svg x="5360"><use xlink:href="#a"/><use xlink:href="#5"/><use xlink:href="#10" y="2.171"/></svg><svg x="5440"><use xlink:href="#a"/><use xlink:href="#5"/><use xlink:href="#10" y="2.171"/></svg><svg x="5520"><use xlink:href="#a"/><use xlink:href="#5"/><use xlink:href="#10" y="2.171"/></svg><svg x="5600"><use xlink:href="#a"/><use xlink:href="#5"/><use xlink:href="#10" y="2.171"/></svg><svg x="5680"><use xlink:href="#a"/><use xlink:href="#5"/><use xlink:href="#10" y="2.171"/></svg><svg x="5760"><use xlink:href="#a"/><use xlink:href="#5"/><use xlink:href="#10" y="2.171"/></svg><svg x="5840"><use xlink:href="#a"/><use xlink:href="#5"/><use xlink:href="#10" y="2.171"/></svg><svg x="5920"><use xlink:href="#a"/><use xlink:href="#5"/><use xlink:href="#10" y="2.171"/></svg><svg x="6000"><use xlink:href="#a"/><use xlink:href="#5"/><use xlink:href="#10" y="2.171"/></svg><svg x="6080"><use xlink:href="#a"/><use xlink:href="#5"/><use xlink:href="#10" y="2.171"/></svg><svg x="6160"><use xlink:href="#a"/><use xlink:href="#5"/><use xlink:href="#10" y="2.171"/></svg><svg x="6240"><use xlink:href="#a"/><use xlink:href="#5"/><use xlink:href="#10" y="2.171"/></svg><svg x="6320"><use xlink:href="#a"/><use xlink:href="#5"/><use xlink:href="#10" y="2.171"/></svg><svg x="6400"><use xlink:href="#a"/><use xlink:href="#5"/><use xlink:href="#10" y="2.171"/></svg><svg x="6480"><use xlink:href="#a"/><use xlink:href="#5"/><use xlink:href="#7" y="2.171"/></svg><svg x="6560"><use xlink:href="#a"/><use xlink:href="#b" x="-.004" y="2.146"/><use xlink:href="#5"/></svg><svg x="6640"><use xlink:href="#a"/><use xlink:href="#b" x="-.004" y="2.146"/><use xlink:href="#5"/></svg><svg x="6720"><use xlink:href="#a"/><use xlink:href="#b" x="8.996" y="2.146"/><use xlink:href="#5"/><use xlink:href="#1" y="2.171"/></svg><svg x="6800"><use xlink:href="#a"/><use xlink:href="#b" x="8.996" y="2.146"/><use xlink:href="#5"/><use xlink:href="#1" y="2.171"/></svg><svg x="6880"><use xlink:href="#a"/><use xlink:href="#b" x="9.996" y="2.146"/><use xlink:href="#5"/><use xlink:href="#2" y="2.171"/></svg><svg x="6960"><use xlink:href="#a"/><use xlink:href="#b" x="10.996" y="2.146"/><use xlink:href="#5"/><use xlink:href="#3" y="2.171"/></svg><svg x="7040"><use xlink:href="#a"/><use xlink:href="#b" x="11.996" y="2.146"/><use xlink:href="#5"/><use xlink:href="#4" y="2.171"/></svg><svg x="7120"><use xlink:href="#a"/><use xlink:href="#b" x="12.996" y="2.146"/><use xlink:href="#5"/><use xlink:href="#4" y="2.171"/></svg><svg x="7200"><use xlink:href="#a"/><use xlink:href="#b" x="13.996" y="2.146"/><use xlink:href="#5"/><text y="3.841" class="f">fronvo</text><text x="7.014" y="3.841" class="f">➤</text><text x="9.018" y="3.841" class="g">npm</text><text x="13.026" y="3.841" class="g">s</text><text x="69.138" y="3.841" class="f">git:master</text></svg><svg x="7280"><use xlink:href="#a"/><use xlink:href="#b" x="14.996" y="2.146"/><use xlink:href="#5"/><text y="3.841" class="f">fronvo</text><text x="7.014" y="3.841" class="f">➤</text><text x="9.018" y="3.841" class="g">npm</text><text x="13.026" y="3.841" class="g">st</text><text x="69.138" y="3.841" class="f">git:master</text></svg><svg x="7360"><use xlink:href="#a"/><use xlink:href="#b" x="15.996" y="2.146"/><use xlink:href="#5"/><text y="3.841" class="f">fronvo</text><text x="7.014" y="3.841" class="f">➤</text><text x="9.018" y="3.841" class="g">npm</text><text x="13.026" y="3.841" class="g">sta</text><text x="69.138" y="3.841" class="f">git:master</text></svg><svg x="7440"><use xlink:href="#a"/><use xlink:href="#b" x="16.996" y="2.146"/><use xlink:href="#5"/><text y="3.841" class="f">fronvo</text><text x="7.014" y="3.841" class="f">➤</text><text x="9.018" y="3.841" class="g">npm</text><text x="13.026" y="3.841" class="g">star</text><text x="69.138" y="3.841" class="f">git:master</text></svg><svg x="7520"><use xlink:href="#a"/><use xlink:href="#b" x="17.996" y="2.146"/><use xlink:href="#5"/><use xlink:href="#11" y="2.171"/></svg><svg x="7600"><use xlink:href="#a"/><use xlink:href="#b" x="17.996" y="2.146"/><use xlink:href="#5"/><use xlink:href="#11" y="2.171"/></svg><svg x="7680"><use xlink:href="#a"/><use xlink:href="#b" x="-.004" y="4.317"/><use xlink:href="#5"/><use xlink:href="#11" y="2.171"/></svg><svg x="7760"><use xlink:href="#a"/><use xlink:href="#b" x="-.004" y="4.317"/><use xlink:href="#5"/><use xlink:href="#11" y="2.171"/></svg><svg x="7840"><use xlink:href="#a"/><use xlink:href="#b" x="-.004" y="6.488"/><use xlink:href="#5"/><use xlink:href="#11" y="2.171"/><use xlink:href="#12" y="4.342"/></svg><svg x="7920"><use xlink:href="#a"/><use xlink:href="#b" x="-.004" y="8.659"/><use xlink:href="#5"/><use xlink:href="#11" y="2.171"/><use xlink:href="#12" y="4.342"/><use xlink:href="#13" y="6.513"/></svg><svg x="8000"><use xlink:href="#a"/><use xlink:href="#5"/><use xlink:href="#11" y="2.171"/><use xlink:href="#12" y="4.342"/><use xlink:href="#13" y="6.513"/></svg><svg x="8080"><use xlink:href="#a"/><use xlink:href="#5"/><use xlink:href="#11" y="2.171"/><use xlink:href="#12" y="4.342"/><use xlink:href="#13" y="6.513"/><text y="10.354" class="m">⢀⠀</text><text x="3.006" y="10.354" class="g">Starting</text><text x="12.024" y="10.354" class="g">server</text></svg><svg x="8160"><use xlink:href="#a"/><use xlink:href="#5"/><use xlink:href="#11" y="2.171"/><use xlink:href="#12" y="4.342"/><use xlink:href="#13" y="6.513"/></svg><svg x="8240"><use xlink:href="#a"/><use xlink:href="#b" x="-.004" y="8.659"/><use xlink:href="#5"/><use xlink:href="#11" y="2.171"/><use xlink:href="#12" y="4.342"/><use xlink:href="#13" y="6.513"/></svg><svg x="8320"><use xlink:href="#a"/><use xlink:href="#b" x="-.004" y="10.83"/><use xlink:href="#5"/><use xlink:href="#11" y="2.171"/><use xlink:href="#12" y="4.342"/><use xlink:href="#13" y="6.513"/><use xlink:href="#14" y="8.684"/></svg><svg x="8400"><use xlink:href="#a"/><use xlink:href="#b" x="1.996" y="10.83"/><use xlink:href="#5"/><use xlink:href="#11" y="2.171"/><use xlink:href="#12" y="4.342"/><use xlink:href="#13" y="6.513"/><use xlink:href="#14" y="8.684"/><use xlink:href="#15" y="10.855"/></svg><svg x="8480"><use xlink:href="#a"/><use xlink:href="#b" x="1.996" y="10.83"/><use xlink:href="#5"/><use xlink:href="#11" y="2.171"/><use xlink:href="#12" y="4.342"/><use xlink:href="#13" y="6.513"/><use xlink:href="#14" y="8.684"/><use xlink:href="#15" y="10.855"/></svg></svg></g></g></svg></svg>