<svg xmlns="http://www.w3.org/2000/svg" xmlns:xlink="http://www.w3.org/1999/xlink" width="840" height="581.04"><rect width="840" height="581.04" rx="5" ry="5" class="a"/><svg y="0%" x="0%"><circle cx="20" cy="20" r="6" fill="#ff5f58"/><circle cx="40" cy="20" r="6" fill="#ffbd2e"/><circle cx="60" cy="20" r="6" fill="#18c132"/></svg><svg height="521.04" viewBox="0 0 80 52.104" width="800" x="15" xmlns="http://www.w3.org/2000/svg" xmlns:xlink="http://www.w3.org/1999/xlink" y="50"><style>@keyframes A{0%{transform:translateX(0)}1.1%{transform:translateX(-160px)}1.3%{transform:translateX(-320px)}11.7%{transform:translateX(-400px)}13.6%{transform:translateX(-480px)}18.2%{transform:translateX(-560px)}21.8%{transform:translateX(-640px)}23.2%{transform:translateX(-720px)}25.4%{transform:translateX(-800px)}27.1%{transform:translateX(-880px)}30.1%{transform:translateX(-960px)}32.5%{transform:translateX(-1040px)}38.7%{transform:translateX(-1200px)}46.1%{transform:translateX(-1280px)}56.7%{transform:translateX(-1520px)}57.2%{transform:translateX(-1760px)}57.8%{transform:translateX(-1920px)}58.3%{transform:translateX(-2080px)}58.8%{transform:translateX(-2240px)}59.3%{transform:translateX(-2400px)}59.8%{transform:translateX(-2560px)}60.4%{transform:translateX(-2720px)}60.9%{transform:translateX(-2880px)}61.4%{transform:translateX(-3120px)}61.9%{transform:translateX(-3280px)}62.4%{transform:translateX(-3360px)}62.5%{transform:translateX(-3440px)}63%{transform:translateX(-3600px)}63.5%{transform:translateX(-3680px)}64%{transform:translateX(-3760px)}64.5%{transform:translateX(-3920px)}65.1%{transform:translateX(-4080px)}65.6%{transform:translateX(-4240px)}66.1%{transform:translateX(-4320px)}66.6%{transform:translateX(-4480px)}67.2%{transform:translateX(-4640px)}67.7%{transform:translateX(-4720px)}68.2%{transform:translateX(-4800px)}68.7%{transform:translateX(-4880px)}69.2%{transform:translateX(-4960px)}69.8%{transform:translateX(-5120px)}70.3%{transform:translateX(-5200px)}70.8%{transform:translateX(-5280px)}71.3%{transform:translateX(-5360px)}71.9%{transform:translateX(-5440px)}72.4%{transform:translateX(-5520px)}72.9%{transform:translateX(-5680px)}73.4%{transform:translateX(-5760px)}73.9%{transform:translateX(-5840px)}74.5%{transform:translateX(-5920px)}75%{transform:translateX(-6000px)}75.5%{transform:translateX(-6080px)}76%{transform:translateX(-6160px)}76.5%{transform:translateX(-6240px)}77.1%{transform:translateX(-6400px)}77.6%{transform:translateX(-6560px)}78.1%{transform:translateX(-6720px)}78.6%{transform:translateX(-6800px)}79.2%{transform:translateX(-6880px)}80.2%{transform:translateX(-7040px)}to{transform:translateX(-7200px)}}.a{fill:#282d35}.f,.g,.x{fill:#dbab79;white-space:pre}.g,.x{fill:#b9c0cb}.x{fill:#d290e4}</style><g font-family="Monaco,Consolas,Menlo,'Bitstream Vera Sans Mono','Powerline Symbols',monospace" font-size="1.67"><defs><symbol id="1"><text y="1.67" class="f">fronvo</text><text x="7.014" y="1.67" class="f">➤</text><text x="69.138" y="1.67" class="f">git:master</text></symbol><symbol id="2"><text y="1.67" class="f">fronvo</text><text x="7.014" y="1.67" class="f">➤</text><text x="9.018" y="1.67" class="g">npm</text><text x="69.138" y="1.67" class="f">git:master</text></symbol><symbol id="3"><text y="1.67" class="f">fronvo</text><text x="7.014" y="1.67" class="f">➤</text><text x="9.018" y="1.67" class="g">npm</text><text x="13.026" y="1.67" class="g">start</text><text x="69.138" y="1.67" class="f">git:master</text></symbol><symbol id="4"><text y="1.67" class="g">Successfully</text><text x="13.026" y="1.67" class="g">compiled:</text><text x="23.046" y="1.67" class="g">43</text><text x="26.052" y="1.67" class="g">files</text><text x="32.064" y="1.67" class="g">with</text><text x="37.074" y="1.67" class="g">swc</text><text x="41.082" y="1.67" class="g">(20.65ms)</text></symbol><symbol id="5"><text y="1.67" style="white-space:pre" fill="#e8128f">F</text><text x="1.002" y="1.67" style="white-space:pre" fill="#e812a5">r</text><text x="2.004" y="1.67" style="white-space:pre" fill="#e812bc">o</text><text x="3.006" y="1.67" style="white-space:pre" fill="#e812d2">n</text><text x="4.008" y="1.67" style="white-space:pre" fill="#e612dd">v</text><text x="5.01" y="1.67" style="white-space:pre" fill="#e412e8">o</text><text x="7.014" y="1.67" style="white-space:pre" fill="#d812e8">s</text><text x="8.016" y="1.67" style="white-space:pre" fill="#cb12e8">e</text><text x="9.018" y="1.67" style="white-space:pre" fill="#c412e8">r</text><text x="10.02" y="1.67" style="white-space:pre" fill="#bd12e8">v</text><text x="11.022" y="1.67" style="white-space:pre" fill="#b312e8">e</text><text x="12.024" y="1.67" style="white-space:pre" fill="#a812e8">r</text><text x="14.028" y="1.67" style="white-space:pre" fill="#9c12e8">v</text><text x="15.03" y="1.67" style="white-space:pre" fill="#8f12e8">0</text><text x="16.032" y="1.67" style="white-space:pre" fill="#8812e8">.</text><text x="17.034" y="1.67" style="white-space:pre" fill="#8012e8">2</text></symbol><symbol id="6"><text y="1.67" class="x">⢋⠁</text><text x="3.006" y="1.67" class="g">Starting</text><text x="12.024" y="1.67" class="g">server:</text><text x="20.04" y="1.67" class="g">Setting</text><text x="28.056" y="1.67" class="g">up</text><text x="31.062" y="1.67" class="g">Prisma</text></symbol><symbol id="7"><text y="1.67" class="x">⡋⠁</text><text x="3.006" y="1.67" class="g">Starting</text><text x="12.024" y="1.67" class="g">server:</text><text x="20.04" y="1.67" class="g">Setting</text><text x="28.056" y="1.67" class="g">up</text><text x="31.062" y="1.67" class="g">Prisma</text></symbol><symbol id="8"><text y="1.67" class="x">⠍⠉</text><text x="3.006" y="1.67" class="g">Starting</text><text x="12.024" y="1.67" class="g">server:</text><text x="20.04" y="1.67" class="g">Setting</text><text x="28.056" y="1.67" class="g">up</text><text x="31.062" y="1.67" class="g">Prisma</text></symbol><symbol id="9"><text y="1.67" class="x">⠋⠉</text><text x="3.006" y="1.67" class="g">Starting</text><text x="12.024" y="1.67" class="g">server:</text><text x="20.04" y="1.67" class="g">Setting</text><text x="28.056" y="1.67" class="g">up</text><text x="31.062" y="1.67" class="g">Prisma</text></symbol><symbol id="10"><text y="1.67" class="x">⠉⠙</text><text x="3.006" y="1.67" class="g">Starting</text><text x="12.024" y="1.67" class="g">server:</text><text x="20.04" y="1.67" class="g">Setting</text><text x="28.056" y="1.67" class="g">up</text><text x="31.062" y="1.67" class="g">Prisma</text></symbol><symbol id="11"><text y="1.67" class="x">⠉⠩</text><text x="3.006" y="1.67" class="g">Starting</text><text x="12.024" y="1.67" class="g">server:</text><text x="20.04" y="1.67" class="g">Setting</text><text x="28.056" y="1.67" class="g">up</text><text x="31.062" y="1.67" class="g">Prisma</text></symbol><symbol id="12"><text y="1.67" class="x">⠈⢙</text><text x="3.006" y="1.67" class="g">Starting</text><text x="12.024" y="1.67" class="g">server:</text><text x="20.04" y="1.67" class="g">Setting</text><text x="28.056" y="1.67" class="g">up</text><text x="31.062" y="1.67" class="g">Prisma</text></symbol><symbol id="13"><text y="1.67" class="x">⠈⡙</text><text x="3.006" y="1.67" class="g">Starting</text><text x="12.024" y="1.67" class="g">server:</text><text x="20.04" y="1.67" class="g">Setting</text><text x="28.056" y="1.67" class="g">up</text><text x="31.062" y="1.67" class="g">Prisma</text></symbol><symbol id="14"><text y="1.67" style="white-space:pre" fill="#a8cc8c">✔</text><text x="2.004" y="1.67" class="g">Server</text><text x="9.018" y="1.67" class="g">running</text><text x="17.034" y="1.67" class="g">at</text><text x="20.04" y="1.67" class="g">port</text><text x="25.05" y="1.67" class="g">3001.</text></symbol><symbol id="15"><text y="1.67" class="g">^C</text></symbol><symbol id="a"><path fill="transparent" d="M0 0h80v24H0z"/></symbol></defs><path class="a" d="M0 0h80v52.104H0z"/><g style="animation-duration:7.671199s;animation-iteration-count:infinite;animation-name:A;animation-timing-function:steps(1,end)"><svg width="7280"><svg><use xlink:href="#a"/></svg><svg x="80"><use xlink:href="#a"/></svg><svg x="160"><use xlink:href="#a"/></svg><svg x="240"><use xlink:href="#a"/><use xlink:href="#1"/></svg><svg x="320"><use xlink:href="#a"/><use xlink:href="#1"/></svg><svg x="400"><use xlink:href="#a"/><text y="1.67" class="f">fronvo</text><text x="7.014" y="1.67" class="f">➤</text><text x="9.018" y="1.67" class="g">n</text><text x="69.138" y="1.67" class="f">git:master</text></svg><svg x="480"><use xlink:href="#a"/><text y="1.67" class="f">fronvo</text><text x="7.014" y="1.67" class="f">➤</text><text x="9.018" y="1.67" class="g">np</text><text x="69.138" y="1.67" class="f">git:master</text></svg><svg x="560"><use xlink:href="#a"/><use xlink:href="#2"/></svg><svg x="640"><use xlink:href="#a"/><use xlink:href="#2"/></svg><svg x="720"><use xlink:href="#a"/><text y="1.67" class="f">fronvo</text><text x="7.014" y="1.67" class="f">➤</text><text x="9.018" y="1.67" class="g">npm</text><text x="13.026" y="1.67" class="g">s</text><text x="69.138" y="1.67" class="f">git:master</text></svg><svg x="800"><use xlink:href="#a"/><text y="1.67" class="f">fronvo</text><text x="7.014" y="1.67" class="f">➤</text><text x="9.018" y="1.67" class="g">npm</text><text x="13.026" y="1.67" class="g">st</text><text x="69.138" y="1.67" class="f">git:master</text></svg><svg x="880"><use xlink:href="#a"/><text y="1.67" class="f">fronvo</text><text x="7.014" y="1.67" class="f">➤</text><text x="9.018" y="1.67" class="g">npm</text><text x="13.026" y="1.67" class="g">sta</text><text x="69.138" y="1.67" class="f">git:master</text></svg><svg x="960"><use xlink:href="#a"/><text y="1.67" class="f">fronvo</text><text x="7.014" y="1.67" class="f">➤</text><text x="9.018" y="1.67" class="g">npm</text><text x="13.026" y="1.67" class="g">star</text><text x="69.138" y="1.67" class="f">git:master</text></svg><svg x="1040"><use xlink:href="#a"/><use xlink:href="#3"/></svg><svg x="1120"><use xlink:href="#a"/><use xlink:href="#3"/></svg><svg x="1200"><use xlink:href="#a"/><use xlink:href="#3"/></svg><svg x="1280"><use xlink:href="#a"/><use xlink:href="#3"/><use xlink:href="#4" y="2.171"/></svg><svg x="1360"><use xlink:href="#a"/><use xlink:href="#3"/><use xlink:href="#4" y="2.171"/><use xlink:href="#5" y="4.342"/></svg><svg x="1440"><use xlink:href="#a"/><use xlink:href="#3"/><use xlink:href="#4" y="2.171"/><use xlink:href="#5" y="4.342"/></svg><svg x="1520"><use xlink:href="#a"/><use xlink:href="#3"/><use xlink:href="#4" y="2.171"/><use xlink:href="#5" y="4.342"/><text y="8.183" class="x">⢀⠀</text><text x="3.006" y="8.183" class="g">Starting</text><text x="12.024" y="8.183" class="g">server</text></svg><svg x="1600"><use xlink:href="#a"/><use xlink:href="#3"/><use xlink:href="#4" y="2.171"/><use xlink:href="#5" y="4.342"/></svg><svg x="1680"><use xlink:href="#a"/><use xlink:href="#3"/><use xlink:href="#4" y="2.171"/><use xlink:href="#5" y="4.342"/></svg><svg x="1760"><use xlink:href="#a"/><use xlink:href="#3"/><use xlink:href="#4" y="2.171"/><use xlink:href="#5" y="4.342"/><text y="8.183" class="x">⡀⠀</text><text x="3.006" y="8.183" class="g">Starting</text><text x="12.024" y="8.183" class="g">server:</text><text x="20.04" y="8.183" class="g">Setting</text><text x="28.056" y="8.183" class="g">up</text><text x="31.062" y="8.183" class="g">Prisma</text></svg><svg x="1840"><use xlink:href="#a"/><use xlink:href="#3"/><use xlink:href="#4" y="2.171"/><use xlink:href="#5" y="4.342"/></svg><svg x="1920"><use xlink:href="#a"/><use xlink:href="#3"/><use xlink:href="#4" y="2.171"/><use xlink:href="#5" y="4.342"/><text y="8.183" class="x">⠄⠀</text><text x="3.006" y="8.183" class="g">Starting</text><text x="12.024" y="8.183" class="g">server:</text><text x="20.04" y="8.183" class="g">Setting</text><text x="28.056" y="8.183" class="g">up</text><text x="31.062" y="8.183" class="g">Prisma</text></svg><svg x="2000"><use xlink:href="#a"/><use xlink:href="#3"/><use xlink:href="#4" y="2.171"/><use xlink:href="#5" y="4.342"/></svg><svg x="2080"><use xlink:href="#a"/><use xlink:href="#3"/><use xlink:href="#4" y="2.171"/><use xlink:href="#5" y="4.342"/><text y="8.183" class="x">⢂⠀</text><text x="3.006" y="8.183" class="g">Starting</text><text x="12.024" y="8.183" class="g">server:</text><text x="20.04" y="8.183" class="g">Setting</text><text x="28.056" y="8.183" class="g">up</text><text x="31.062" y="8.183" class="g">Prisma</text></svg><svg x="2160"><use xlink:href="#a"/><use xlink:href="#3"/><use xlink:href="#4" y="2.171"/><use xlink:href="#5" y="4.342"/></svg><svg x="2240"><use xlink:href="#a"/><use xlink:href="#3"/><use xlink:href="#4" y="2.171"/><use xlink:href="#5" y="4.342"/><text y="8.183" class="x">⡂⠀</text><text x="3.006" y="8.183" class="g">Starting</text><text x="12.024" y="8.183" class="g">server:</text><text x="20.04" y="8.183" class="g">Setting</text><text x="28.056" y="8.183" class="g">up</text><text x="31.062" y="8.183" class="g">Prisma</text></svg><svg x="2320"><use xlink:href="#a"/><use xlink:href="#3"/><use xlink:href="#4" y="2.171"/><use xlink:href="#5" y="4.342"/></svg><svg x="2400"><use xlink:href="#a"/><use xlink:href="#3"/><use xlink:href="#4" y="2.171"/><use xlink:href="#5" y="4.342"/><text y="8.183" class="x">⠅⠀</text><text x="3.006" y="8.183" class="g">Starting</text><text x="12.024" y="8.183" class="g">server:</text><text x="20.04" y="8.183" class="g">Setting</text><text x="28.056" y="8.183" class="g">up</text><text x="31.062" y="8.183" class="g">Prisma</text></svg><svg x="2480"><use xlink:href="#a"/><use xlink:href="#3"/><use xlink:href="#4" y="2.171"/><use xlink:href="#5" y="4.342"/></svg><svg x="2560"><use xlink:href="#a"/><use xlink:href="#3"/><use xlink:href="#4" y="2.171"/><use xlink:href="#5" y="4.342"/><text y="8.183" class="x">⢃⠀</text><text x="3.006" y="8.183" class="g">Starting</text><text x="12.024" y="8.183" class="g">server:</text><text x="20.04" y="8.183" class="g">Setting</text><text x="28.056" y="8.183" class="g">up</text><text x="31.062" y="8.183" class="g">Prisma</text></svg><svg x="2640"><use xlink:href="#a"/><use xlink:href="#3"/><use xlink:href="#4" y="2.171"/><use xlink:href="#5" y="4.342"/></svg><svg x="2720"><use xlink:href="#a"/><use xlink:href="#3"/><use xlink:href="#4" y="2.171"/><use xlink:href="#5" y="4.342"/><text y="8.183" class="x">⡃⠀</text><text x="3.006" y="8.183" class="g">Starting</text><text x="12.024" y="8.183" class="g">server:</text><text x="20.04" y="8.183" class="g">Setting</text><text x="28.056" y="8.183" class="g">up</text><text x="31.062" y="8.183" class="g">Prisma</text></svg><svg x="2800"><use xlink:href="#a"/><use xlink:href="#3"/><use xlink:href="#4" y="2.171"/><use xlink:href="#5" y="4.342"/></svg><svg x="2880"><use xlink:href="#a"/><use xlink:href="#3"/><use xlink:href="#4" y="2.171"/><use xlink:href="#5" y="4.342"/><text y="8.183" class="x">⠍⠀</text><text x="3.006" y="8.183" class="g">Starting</text><text x="12.024" y="8.183" class="g">server:</text><text x="20.04" y="8.183" class="g">Setting</text><text x="28.056" y="8.183" class="g">up</text><text x="31.062" y="8.183" class="g">Prisma</text></svg><svg x="2960"><use xlink:href="#a"/><use xlink:href="#3"/><use xlink:href="#4" y="2.171"/><use xlink:href="#5" y="4.342"/></svg><svg x="3040"><use xlink:href="#a"/><use xlink:href="#3"/><use xlink:href="#4" y="2.171"/><use xlink:href="#5" y="4.342"/></svg><svg x="3120"><use xlink:href="#a"/><use xlink:href="#3"/><use xlink:href="#4" y="2.171"/><use xlink:href="#5" y="4.342"/><text y="8.183" class="x">⢋⠀</text><text x="3.006" y="8.183" class="g">Starting</text><text x="12.024" y="8.183" class="g">server:</text><text x="20.04" y="8.183" class="g">Setting</text><text x="28.056" y="8.183" class="g">up</text><text x="31.062" y="8.183" class="g">Prisma</text></svg><svg x="3200"><use xlink:href="#a"/><use xlink:href="#3"/><use xlink:href="#4" y="2.171"/><use xlink:href="#5" y="4.342"/></svg><svg x="3280"><use xlink:href="#a"/><use xlink:href="#3"/><use xlink:href="#4" y="2.171"/><use xlink:href="#5" y="4.342"/><text y="8.183" class="x">⡋⠀</text><text x="3.006" y="8.183" class="g">Starting</text><text x="12.024" y="8.183" class="g">server:</text><text x="20.04" y="8.183" class="g">Setting</text><text x="28.056" y="8.183" class="g">up</text><text x="31.062" y="8.183" class="g">Prisma</text></svg><svg x="3360"><use xlink:href="#a"/><use xlink:href="#3"/><use xlink:href="#4" y="2.171"/><use xlink:href="#5" y="4.342"/></svg><svg x="3440"><use xlink:href="#a"/><use xlink:href="#3"/><use xlink:href="#4" y="2.171"/><use xlink:href="#5" y="4.342"/><text y="8.183" class="x">⠍⠁</text><text x="3.006" y="8.183" class="g">Starting</text><text x="12.024" y="8.183" class="g">server:</text><text x="20.04" y="8.183" class="g">Setting</text><text x="28.056" y="8.183" class="g">up</text><text x="31.062" y="8.183" class="g">Prisma</text></svg><svg x="3520"><use xlink:href="#a"/><use xlink:href="#3"/><use xlink:href="#4" y="2.171"/><use xlink:href="#5" y="4.342"/></svg><svg x="3600"><use xlink:href="#a"/><use xlink:href="#3"/><use xlink:href="#4" y="2.171"/><use xlink:href="#5" y="4.342"/><use xlink:href="#6" y="6.513"/></svg><svg x="3680"><use xlink:href="#a"/><use xlink:href="#3"/><use xlink:href="#4" y="2.171"/><use xlink:href="#5" y="4.342"/><use xlink:href="#7" y="6.513"/></svg><svg x="3760"><use xlink:href="#a"/><use xlink:href="#3"/><use xlink:href="#4" y="2.171"/><use xlink:href="#5" y="4.342"/><use xlink:href="#8" y="6.513"/></svg><svg x="3840"><use xlink:href="#a"/><use xlink:href="#3"/><use xlink:href="#4" y="2.171"/><use xlink:href="#5" y="4.342"/></svg><svg x="3920"><use xlink:href="#a"/><use xlink:href="#3"/><use xlink:href="#4" y="2.171"/><use xlink:href="#5" y="4.342"/><use xlink:href="#9" y="6.513"/></svg><svg x="4000"><use xlink:href="#a"/><use xlink:href="#3"/><use xlink:href="#4" y="2.171"/><use xlink:href="#5" y="4.342"/></svg><svg x="4080"><use xlink:href="#a"/><use xlink:href="#3"/><use xlink:href="#4" y="2.171"/><use xlink:href="#5" y="4.342"/><use xlink:href="#9" y="6.513"/></svg><svg x="4160"><use xlink:href="#a"/><use xlink:href="#3"/><use xlink:href="#4" y="2.171"/><use xlink:href="#5" y="4.342"/></svg><svg x="4240"><use xlink:href="#a"/><use xlink:href="#3"/><use xlink:href="#4" y="2.171"/><use xlink:href="#5" y="4.342"/><use xlink:href="#10" y="6.513"/></svg><svg x="4320"><use xlink:href="#a"/><use xlink:href="#3"/><use xlink:href="#4" y="2.171"/><use xlink:href="#5" y="4.342"/><use xlink:href="#10" y="6.513"/></svg><svg x="4400"><use xlink:href="#a"/><use xlink:href="#3"/><use xlink:href="#4" y="2.171"/><use xlink:href="#5" y="4.342"/></svg><svg x="4480"><use xlink:href="#a"/><use xlink:href="#3"/><use xlink:href="#4" y="2.171"/><use xlink:href="#5" y="4.342"/><use xlink:href="#11" y="6.513"/></svg><svg x="4560"><use xlink:href="#a"/><use xlink:href="#3"/><use xlink:href="#4" y="2.171"/><use xlink:href="#5" y="4.342"/></svg><svg x="4640"><use xlink:href="#a"/><use xlink:href="#3"/><use xlink:href="#4" y="2.171"/><use xlink:href="#5" y="4.342"/><use xlink:href="#12" y="6.513"/></svg><svg x="4720"><use xlink:href="#a"/><use xlink:href="#3"/><use xlink:href="#4" y="2.171"/><use xlink:href="#5" y="4.342"/><use xlink:href="#13" y="6.513"/></svg><svg x="4800"><use xlink:href="#a"/><use xlink:href="#3"/><use xlink:href="#4" y="2.171"/><use xlink:href="#5" y="4.342"/><text y="8.183" class="x">⢈⠩</text><text x="3.006" y="8.183" class="g">Starting</text><text x="12.024" y="8.183" class="g">server:</text><text x="20.04" y="8.183" class="g">Setting</text><text x="28.056" y="8.183" class="g">up</text><text x="31.062" y="8.183" class="g">Prisma</text></svg><svg x="4880"><use xlink:href="#a"/><use xlink:href="#3"/><use xlink:href="#4" y="2.171"/><use xlink:href="#5" y="4.342"/><text y="8.183" class="x">⡀⢙</text><text x="3.006" y="8.183" class="g">Starting</text><text x="12.024" y="8.183" class="g">server:</text><text x="20.04" y="8.183" class="g">Setting</text><text x="28.056" y="8.183" class="g">up</text><text x="31.062" y="8.183" class="g">Prisma</text></svg><svg x="4960"><use xlink:href="#a"/><use xlink:href="#3"/><use xlink:href="#4" y="2.171"/><use xlink:href="#5" y="4.342"/><text y="8.183" class="x">⠄⡙</text><text x="3.006" y="8.183" class="g">Starting</text><text x="12.024" y="8.183" class="g">server:</text><text x="20.04" y="8.183" class="g">Setting</text><text x="28.056" y="8.183" class="g">up</text><text x="31.062" y="8.183" class="g">Prisma</text></svg><svg x="5040"><use xlink:href="#a"/><use xlink:href="#3"/><use xlink:href="#4" y="2.171"/><use xlink:href="#5" y="4.342"/></svg><svg x="5120"><use xlink:href="#a"/><use xlink:href="#3"/><use xlink:href="#4" y="2.171"/><use xlink:href="#5" y="4.342"/><text y="8.183" class="x">⢂⠩</text><text x="3.006" y="8.183" class="g">Starting</text><text x="12.024" y="8.183" class="g">server:</text><text x="20.04" y="8.183" class="g">Setting</text><text x="28.056" y="8.183" class="g">up</text><text x="31.062" y="8.183" class="g">Prisma</text></svg><svg x="5200"><use xlink:href="#a"/><use xlink:href="#3"/><use xlink:href="#4" y="2.171"/><use xlink:href="#5" y="4.342"/><text y="8.183" class="x">⡂⢘</text><text x="3.006" y="8.183" class="g">Starting</text><text x="12.024" y="8.183" class="g">server:</text><text x="20.04" y="8.183" class="g">Setting</text><text x="28.056" y="8.183" class="g">up</text><text x="31.062" y="8.183" class="g">Prisma</text></svg><svg x="5280"><use xlink:href="#a"/><use xlink:href="#3"/><use xlink:href="#4" y="2.171"/><use xlink:href="#5" y="4.342"/><text y="8.183" class="x">⠅⡘</text><text x="3.006" y="8.183" class="g">Starting</text><text x="12.024" y="8.183" class="g">server:</text><text x="20.04" y="8.183" class="g">Setting</text><text x="28.056" y="8.183" class="g">up</text><text x="31.062" y="8.183" class="g">Prisma</text></svg><svg x="5360"><use xlink:href="#a"/><use xlink:href="#3"/><use xlink:href="#4" y="2.171"/><use xlink:href="#5" y="4.342"/><text y="8.183" class="x">⢃⠨</text><text x="3.006" y="8.183" class="g">Starting</text><text x="12.024" y="8.183" class="g">server:</text><text x="20.04" y="8.183" class="g">Setting</text><text x="28.056" y="8.183" class="g">up</text><text x="31.062" y="8.183" class="g">Prisma</text></svg><svg x="5440"><use xlink:href="#a"/><use xlink:href="#3"/><use xlink:href="#4" y="2.171"/><use xlink:href="#5" y="4.342"/><text y="8.183" class="x">⡃⢐</text><text x="3.006" y="8.183" class="g">Starting</text><text x="12.024" y="8.183" class="g">server:</text><text x="20.04" y="8.183" class="g">Setting</text><text x="28.056" y="8.183" class="g">up</text><text x="31.062" y="8.183" class="g">Prisma</text></svg><svg x="5520"><use xlink:href="#a"/><use xlink:href="#3"/><use xlink:href="#4" y="2.171"/><use xlink:href="#5" y="4.342"/><text y="8.183" class="x">⠍⡐</text><text x="3.006" y="8.183" class="g">Starting</text><text x="12.024" y="8.183" class="g">server:</text><text x="20.04" y="8.183" class="g">Setting</text><text x="28.056" y="8.183" class="g">up</text><text x="31.062" y="8.183" class="g">Prisma</text></svg><svg x="5600"><use xlink:href="#a"/><use xlink:href="#3"/><use xlink:href="#4" y="2.171"/><use xlink:href="#5" y="4.342"/></svg><svg x="5680"><use xlink:href="#a"/><use xlink:href="#3"/><use xlink:href="#4" y="2.171"/><use xlink:href="#5" y="4.342"/><text y="8.183" class="x">⢋⠠</text><text x="3.006" y="8.183" class="g">Starting</text><text x="12.024" y="8.183" class="g">server:</text><text x="20.04" y="8.183" class="g">Setting</text><text x="28.056" y="8.183" class="g">up</text><text x="31.062" y="8.183" class="g">Prisma</text></svg><svg x="5760"><use xlink:href="#a"/><use xlink:href="#3"/><use xlink:href="#4" y="2.171"/><use xlink:href="#5" y="4.342"/><text y="8.183" class="x">⡋⢀</text><text x="3.006" y="8.183" class="g">Starting</text><text x="12.024" y="8.183" class="g">server:</text><text x="20.04" y="8.183" class="g">Setting</text><text x="28.056" y="8.183" class="g">up</text><text x="31.062" y="8.183" class="g">Prisma</text></svg><svg x="5840"><use xlink:href="#a"/><use xlink:href="#3"/><use xlink:href="#4" y="2.171"/><use xlink:href="#5" y="4.342"/><text y="8.183" class="x">⠍⡁</text><text x="3.006" y="8.183" class="g">Starting</text><text x="12.024" y="8.183" class="g">server:</text><text x="20.04" y="8.183" class="g">Setting</text><text x="28.056" y="8.183" class="g">up</text><text x="31.062" y="8.183" class="g">Prisma</text></svg><svg x="5920"><use xlink:href="#a"/><use xlink:href="#3"/><use xlink:href="#4" y="2.171"/><use xlink:href="#5" y="4.342"/><use xlink:href="#6" y="6.513"/></svg><svg x="6000"><use xlink:href="#a"/><use xlink:href="#3"/><use xlink:href="#4" y="2.171"/><use xlink:href="#5" y="4.342"/><use xlink:href="#7" y="6.513"/></svg><svg x="6080"><use xlink:href="#a"/><use xlink:href="#3"/><use xlink:href="#4" y="2.171"/><use xlink:href="#5" y="4.342"/><use xlink:href="#8" y="6.513"/></svg><svg x="6160"><use xlink:href="#a"/><use xlink:href="#3"/><use xlink:href="#4" y="2.171"/><use xlink:href="#5" y="4.342"/><use xlink:href="#9" y="6.513"/></svg><svg x="6240"><use xlink:href="#a"/><use xlink:href="#3"/><use xlink:href="#4" y="2.171"/><use xlink:href="#5" y="4.342"/><use xlink:href="#9" y="6.513"/></svg><svg x="6320"><use xlink:href="#a"/><use xlink:href="#3"/><use xlink:href="#4" y="2.171"/><use xlink:href="#5" y="4.342"/></svg><svg x="6400"><use xlink:href="#a"/><use xlink:href="#3"/><use xlink:href="#4" y="2.171"/><use xlink:href="#5" y="4.342"/><use xlink:href="#10" y="6.513"/></svg><svg x="6480"><use xlink:href="#a"/><use xlink:href="#3"/><use xlink:href="#4" y="2.171"/><use xlink:href="#5" y="4.342"/></svg><svg x="6560"><use xlink:href="#a"/><use xlink:href="#3"/><use xlink:href="#4" y="2.171"/><use xlink:href="#5" y="4.342"/><use xlink:href="#10" y="6.513"/></svg><svg x="6640"><use xlink:href="#a"/><use xlink:href="#3"/><use xlink:href="#4" y="2.171"/><use xlink:href="#5" y="4.342"/></svg><svg x="6720"><use xlink:href="#a"/><use xlink:href="#3"/><use xlink:href="#4" y="2.171"/><use xlink:href="#5" y="4.342"/><use xlink:href="#11" y="6.513"/></svg><svg x="6800"><use xlink:href="#a"/><use xlink:href="#3"/><use xlink:href="#4" y="2.171"/><use xlink:href="#5" y="4.342"/><use xlink:href="#12" y="6.513"/></svg><svg x="6880"><use xlink:href="#a"/><use xlink:href="#3"/><use xlink:href="#4" y="2.171"/><use xlink:href="#5" y="4.342"/><use xlink:href="#13" y="6.513"/></svg><svg x="6960"><use xlink:href="#a"/><use xlink:href="#3"/><use xlink:href="#4" y="2.171"/><use xlink:href="#5" y="4.342"/></svg><svg x="7040"><use xlink:href="#a"/><use xlink:href="#3"/><use xlink:href="#4" y="2.171"/><use xlink:href="#5" y="4.342"/><use xlink:href="#14" y="6.513"/></svg><svg x="7120"><use xlink:href="#a"/><use xlink:href="#3"/><use xlink:href="#4" y="2.171"/><use xlink:href="#5" y="4.342"/><use xlink:href="#14" y="6.513"/><use xlink:href="#15" y="8.684"/></svg><svg x="7200"><use xlink:href="#a"/><use xlink:href="#3"/><use xlink:href="#4" y="2.171"/><use xlink:href="#5" y="4.342"/><use xlink:href="#14" y="6.513"/><use xlink:href="#15" y="8.684"/></svg></svg></g></g></svg></svg>